<svg width="20" height="20" viewBox="0 0 20 20" fill="none" xmlns="http://www.w3.org/2000/svg">
<path fill-rule="evenodd" clip-rule="evenodd" d="M5.0013 1.66663H15.0013C16.8423 1.66663 18.3346 3.15901 18.3346 4.99996V15C18.3346 16.8409 16.8423 18.3333 15.0013 18.3333H5.0013C3.16035 18.3333 1.66797 16.8409 1.66797 15V4.99996C1.66797 3.15901 3.16035 1.66663 5.0013 1.66663ZM10.0013 6.04163C10.3465 6.04163 10.6263 6.32145 10.6263 6.66663V9.37496H13.3346C13.6798 9.37496 13.9596 9.65478 13.9596 9.99996C13.9596 10.3451 13.6798 10.625 13.3346 10.625H10.6263V13.3333C10.6263 13.6785 10.3465 13.9583 10.0013 13.9583C9.65612 13.9583 9.3763 13.6785 9.3763 13.3333V10.625H6.66797C6.32279 10.625 6.04297 10.3451 6.04297 9.99996C6.04297 9.65478 6.32279 9.37496 6.66797 9.37496H9.3763V6.66663C9.3763 6.32145 9.65612 6.04163 10.0013 6.04163Z" fill="#E20613"/>
</svg>
