<svg width="29" height="28" viewBox="0 0 29 28" fill="none" xmlns="http://www.w3.org/2000/svg">
<path d="M7.10938 24.6955H19.4848C22.8751 24.6955 25.6232 21.9469 25.6232 18.5571V3.30469H13.2519C12.8487 3.30453 12.4495 3.38382 12.077 3.53803C11.7046 3.69223 11.3661 3.91832 11.0811 4.20338C10.796 4.48844 10.5699 4.82688 10.4157 5.19936C10.2615 5.57184 10.1822 5.97105 10.1824 6.37419L10.1783 9.34919" stroke="#4A4C56" stroke-width="1.5" stroke-linecap="round" stroke-linejoin="round"/>
<path d="M4.03906 14.8114H10.1775M13.919 14.8114H21.7129M13.919 18.7699H21.7129M7.10856 9.34909H10.1775V21.6259C10.1772 22.4398 9.85376 23.2203 9.27831 23.7958C8.70286 24.3714 7.92245 24.695 7.10856 24.6954C6.29458 24.6951 5.51402 24.3716 4.93844 23.796C4.36286 23.2205 4.03937 22.4399 4.03906 21.6259V12.418C4.03953 11.6041 4.36309 10.8237 4.93865 10.2483C5.51421 9.67281 6.29468 9.3494 7.10856 9.34909ZM13.919 7.76709H17.3245V11.1726H13.919V7.76709Z" stroke="#4A4C56" stroke-width="1.5" stroke-linecap="round" stroke-linejoin="round"/>
</svg>
