<svg width="29" height="28" viewBox="0 0 29 28" fill="none" xmlns="http://www.w3.org/2000/svg">
<path d="M8.54297 16.625V3.5C8.54297 3.26794 8.63516 3.04538 8.79925 2.88128C8.96334 2.71719 9.1859 2.625 9.41797 2.625H19.918C20.15 2.625 20.3726 2.71719 20.5367 2.88128C20.7008 3.04538 20.793 3.26794 20.793 3.5V21C20.793 21.2321 20.7008 21.4546 20.5367 21.6187C20.3726 21.7828 20.15 21.875 19.918 21.875H10.293M14.668 5.25V6.125M8.54297 5.25H6.67747C6.46665 5.25003 6.26293 5.32618 6.10378 5.46443C5.94462 5.60269 5.84073 5.79376 5.81122 6.0025L4.17672 17.4388L4.16797 17.5612V24.031C4.16804 24.1751 4.2037 24.3169 4.27178 24.4439C4.33986 24.5709 4.43826 24.6792 4.55822 24.759L6.57247 26.103C6.71602 26.1987 6.88468 26.2499 7.05722 26.25H12.3772C12.5396 26.25 12.6987 26.2048 12.8369 26.1195C12.975 26.0342 13.0867 25.9122 13.1595 25.767L14.605 22.8777C14.6467 22.7937 14.7016 22.7169 14.7677 22.6502L15.543 21.875M20.793 7.875H21.8605C22.0556 7.87505 22.2452 7.94036 22.399 8.06054C22.5528 8.18072 22.662 8.34887 22.7092 8.53825L23.1467 10.2883C23.1789 10.4172 23.1812 10.5518 23.1536 10.6818C23.126 10.8118 23.0691 10.9338 22.9873 11.0386C22.9055 11.1433 22.8009 11.2281 22.6815 11.2864C22.562 11.3446 22.4309 11.375 22.298 11.375H21.668C21.4359 11.375 21.2133 11.4672 21.0492 11.6313C20.8852 11.7954 20.793 12.0179 20.793 12.25V13.125C20.793 13.3571 20.8852 13.5796 21.0492 13.7437C21.2133 13.9078 21.4359 14 21.668 14H22.543C22.775 14 22.9976 14.0922 23.1617 14.2563C23.3258 14.4204 23.418 14.6429 23.418 14.875V15.75C23.418 15.9821 23.3258 16.2046 23.1617 16.3687C22.9976 16.5328 22.775 16.625 22.543 16.625H20.793M7.66797 17.5L11.4235 13.7445C11.5047 13.663 11.6013 13.5984 11.7076 13.5543C11.8139 13.5101 11.9279 13.4874 12.043 13.4874C12.1581 13.4874 12.272 13.5101 12.3783 13.5543C12.4846 13.5984 12.5812 13.663 12.6625 13.7445L14.1325 15.2145C14.281 15.3635 14.3709 15.561 14.3857 15.7709C14.4005 15.9807 14.3392 16.1889 14.213 16.3573L9.59297 22.5172C9.47937 22.6687 9.41797 22.8529 9.41797 23.0422V25.375M11.168 15.75L12.043 16.625M16.418 8.75C16.418 8.28587 16.2336 7.84075 15.9054 7.51256C15.5772 7.18437 15.1321 7 14.668 7C14.2038 7 13.7587 7.18437 13.4305 7.51256C13.1023 7.84075 12.918 8.28587 12.918 8.75M11.168 9.625H18.168" stroke="#4A4C56" stroke-width="1.5"/>
</svg>
