<svg width="28" height="28" viewBox="0 0 28 28" fill="none" xmlns="http://www.w3.org/2000/svg">
<path d="M7.15647 24.4998C5.78214 24.4998 4.66797 23.3565 4.66797 21.9448V11.6758C4.66797 10.9 5.01214 10.165 5.6013 9.68083L12.4461 4.05983C12.8835 3.69768 13.4335 3.49951 14.0013 3.49951C14.5691 3.49951 15.1191 3.69768 15.5565 4.05983L22.4001 9.68083C22.9905 10.165 23.3346 10.9 23.3346 11.6758V21.9448C23.3346 23.3565 22.2205 24.4998 20.8461 24.4998H7.15647Z" stroke="#4A4C56" stroke-width="1.5" stroke-linecap="round" stroke-linejoin="round"/>
<path d="M11.0859 24.5V18.0833C11.0859 17.4645 11.3318 16.871 11.7694 16.4334C12.2069 15.9958 12.8004 15.75 13.4193 15.75H14.5859C15.2048 15.75 15.7983 15.9958 16.2359 16.4334C16.6734 16.871 16.9193 17.4645 16.9193 18.0833V24.5" stroke="#4A4C56" stroke-width="1.5" stroke-linecap="round" stroke-linejoin="round"/>
</svg>
