<svg width="28" height="28" viewBox="0 0 28 28" fill="none" xmlns="http://www.w3.org/2000/svg">
<path d="M1.74806 14.0001C1.77459 14 1.80109 13.9983 1.8274 13.9948C6.11252 13.4134 10.2919 12.2192 14.2372 10.4487C18.2215 8.65613 21.9234 6.29252 25.2261 3.43241L24.5156 6.27558C24.4781 6.42557 24.5018 6.58427 24.5813 6.71683C24.6608 6.8494 24.7897 6.94498 24.9396 6.98258C24.986 6.99406 25.0336 6.99993 25.0814 7.00008C25.2114 6.99992 25.3377 6.95632 25.4401 6.87621C25.5425 6.7961 25.6152 6.68407 25.6467 6.55791L26.8133 1.89125C26.8347 1.80532 26.8363 1.71565 26.818 1.62902C26.7996 1.54239 26.7617 1.46108 26.7072 1.39126C26.6528 1.32144 26.5831 1.26493 26.5035 1.22603C26.424 1.18714 26.3366 1.16686 26.2481 1.16675H21.5814C21.4267 1.16675 21.2783 1.22821 21.1689 1.3376C21.0595 1.447 20.9981 1.59537 20.9981 1.75008C20.9981 1.90479 21.0595 2.05316 21.1689 2.16256C21.2783 2.27196 21.4267 2.33341 21.5814 2.33341H24.7133C21.4332 5.21599 17.741 7.59264 13.7589 9.38475C9.91534 11.1094 5.84385 12.2726 1.66931 12.8387C1.52265 12.8585 1.389 12.9333 1.29544 13.048C1.20187 13.1626 1.15539 13.3086 1.1654 13.4562C1.17541 13.6039 1.24117 13.7422 1.34936 13.8432C1.45754 13.9442 1.60007 14.0003 1.74806 14.0001ZM26.2481 25.6667H25.6647V9.91675C25.6647 9.76204 25.6033 9.61367 25.4939 9.50427C25.3845 9.39487 25.2361 9.33342 25.0814 9.33342H19.2481C19.0934 9.33342 18.945 9.39487 18.8356 9.50427C18.7262 9.61367 18.6647 9.76204 18.6647 9.91675V25.6667H17.4981V13.4167C17.4981 13.262 17.4366 13.1137 17.3272 13.0043C17.2178 12.8949 17.0694 12.8334 16.9147 12.8334H11.0814C10.9267 12.8334 10.7783 12.8949 10.6689 13.0043C10.5595 13.1137 10.4981 13.262 10.4981 13.4167V25.6667H9.3314V16.9167C9.3314 16.762 9.26994 16.6137 9.16054 16.5043C9.05115 16.3949 8.90277 16.3334 8.74806 16.3334H2.91473C2.76002 16.3334 2.61165 16.3949 2.50225 16.5043C2.39286 16.6137 2.3314 16.762 2.3314 16.9167V25.6667H1.74806C1.59335 25.6667 1.44498 25.7282 1.33558 25.8376C1.22619 25.947 1.16473 26.0954 1.16473 26.2501C1.16473 26.4048 1.22619 26.5532 1.33558 26.6626C1.44498 26.772 1.59335 26.8334 1.74806 26.8334H26.2481C26.4028 26.8334 26.5511 26.772 26.6605 26.6626C26.7699 26.5532 26.8314 26.4048 26.8314 26.2501C26.8314 26.0954 26.7699 25.947 26.6605 25.8376C26.5511 25.7282 26.4028 25.6667 26.2481 25.6667ZM19.8314 10.5001H24.4981V25.6667H19.8314V10.5001ZM11.6647 14.0001H16.3314V25.6667H11.6647V14.0001ZM3.49806 17.5001H8.16473V25.6667H3.49806V17.5001Z" fill="#4A4C56"/>
</svg>
