<svg width="28" height="28" viewBox="0 0 28 28" fill="none" xmlns="http://www.w3.org/2000/svg">
<path d="M7.15647 24.5001C5.78214 24.5001 4.66797 23.3567 4.66797 21.9451V11.6761C4.66797 10.9002 5.01214 10.1652 5.6013 9.68108L12.4461 4.06008C12.8835 3.69792 13.4335 3.49976 14.0013 3.49976C14.5691 3.49976 15.1191 3.69792 15.5565 4.06008L22.4001 9.68108C22.9905 10.1652 23.3346 10.9002 23.3346 11.6761V21.9451C23.3346 23.3567 22.2205 24.5001 20.8461 24.5001H7.15647Z" stroke="#4A4C56" stroke-width="1.5" stroke-linecap="round" stroke-linejoin="round"/>
<path d="M11.0859 24.5V18.0833C11.0859 17.4645 11.3318 16.871 11.7694 16.4334C12.2069 15.9958 12.8004 15.75 13.4193 15.75H14.5859C15.2048 15.75 15.7983 15.9958 16.2359 16.4334C16.6734 16.871 16.9193 17.4645 16.9193 18.0833V24.5" stroke="#4A4C56" stroke-width="1.5" stroke-linecap="round" stroke-linejoin="round"/>
</svg>
