<svg width="28" height="28" viewBox="0 0 28 28" fill="none" xmlns="http://www.w3.org/2000/svg">
<path d="M8.19891 10.8895H12.3469C12.7049 10.8895 12.995 10.5994 12.995 10.2414C12.995 9.88343 12.7049 9.59326 12.3469 9.59326H8.19891C7.84095 9.59326 7.55078 9.88343 7.55078 10.2414C7.55078 10.5994 7.84101 10.8895 8.19891 10.8895ZM16.2357 13.8061H8.19891C7.84095 13.8061 7.55078 14.0963 7.55078 14.4542C7.55078 14.8122 7.84095 15.1024 8.19891 15.1024H16.2357C16.5936 15.1024 16.8838 14.8122 16.8838 14.4542C16.8838 14.0963 16.5936 13.8061 16.2357 13.8061ZM16.2357 18.0189H8.19891C7.84095 18.0189 7.55078 18.3091 7.55078 18.667C7.55078 19.025 7.84095 19.3152 8.19891 19.3152H16.2357C16.5936 19.3152 16.8838 19.025 16.8838 18.667C16.8838 18.3091 16.5936 18.0189 16.2357 18.0189Z" fill="#4A4C56"/>
<path d="M25.5045 22.8798V2.46381C25.5587 1.15844 24.5445 0.0562666 23.2391 0.00205437C23.1841 -0.000240455 23.1291 -0.000612849 23.0741 0.000937875H9.13933C7.71343 0.000937875 6.3848 1.03792 6.3848 2.46381V3.56561H5.25062C3.76791 3.59817 2.56389 4.77385 2.49609 6.25532V26.7037C2.51684 26.8979 2.5874 27.0836 2.70096 27.2425C2.81451 27.4015 2.96719 27.5285 3.14422 27.6111C3.32646 27.6916 3.52851 27.7161 3.7247 27.6815C3.92089 27.6468 4.10235 27.5547 4.24602 27.4166L6.22278 25.6343L8.58846 27.7407C8.76495 27.9044 8.99589 27.9967 9.23658 27.9999C9.4761 27.991 9.70512 27.8994 9.88471 27.7407L12.2179 25.6343L14.5512 27.7407C14.9202 28.0708 15.4784 28.0708 15.8474 27.7407L18.2131 25.6343L20.1575 27.4166C20.2716 27.5571 20.4311 27.6534 20.6086 27.6889C20.786 27.7244 20.9703 27.6968 21.1297 27.6111C21.2875 27.5205 21.4167 27.3874 21.5027 27.227C21.5886 27.0666 21.6278 26.8853 21.6158 26.7037V22.102L22.0046 21.8103L23.9814 23.5927C24.0719 23.679 24.1787 23.7464 24.2955 23.7909C24.4124 23.8354 24.5369 23.8562 24.6619 23.852C24.7739 23.8621 24.8864 23.8396 24.9859 23.7871C25.1525 23.7043 25.2907 23.5738 25.383 23.4122C25.4754 23.2507 25.5176 23.0654 25.5045 22.8798ZM20.3195 25.9908L18.7964 24.5001C18.4532 24.1493 17.8933 24.1349 17.5325 24.4677L15.1669 26.5741L12.866 24.4677C12.6821 24.3205 12.4535 24.2402 12.2179 24.2402C11.9823 24.2402 11.7537 24.3205 11.5698 24.4677L9.23652 26.5741L6.87085 24.4677C6.67307 24.3056 6.42376 24.2198 6.16812 24.2257C5.91248 24.2316 5.66743 24.329 5.47739 24.5001L3.79229 25.9908V6.25538C3.85711 5.48946 4.48247 4.89189 5.25056 4.86193H19.1853C19.8982 4.86193 20.3195 5.54243 20.3195 6.25538V25.9908ZM24.2083 2.46381V22.1669L22.588 20.6761C22.3287 20.4169 22.264 20.3521 21.6158 20.4493V6.25538C21.6158 4.82949 20.6112 3.56567 19.1853 3.56567H7.68105V2.46381C7.68105 1.75086 8.42638 1.29719 9.13933 1.29719H23.074C23.6634 1.25886 24.1723 1.70552 24.2106 2.29491C24.2144 2.35117 24.2136 2.40768 24.2083 2.46381Z" fill="#4A4C56"/>
</svg>
