<svg width="28" height="28" viewBox="0 0 28 28" fill="none" xmlns="http://www.w3.org/2000/svg">
<path d="M13.7378 23.6864L13.4008 23.855L3.49868 19.4541V7.89753L13.1784 12.1996C13.253 12.2328 13.3337 12.2499 13.4154 12.2499C13.497 12.2499 13.5777 12.2328 13.6523 12.1996L23.332 7.89753V12.8332C23.3335 12.987 23.3956 13.1339 23.5049 13.2421C23.6141 13.3503 23.7616 13.4109 23.9154 13.4109C24.0691 13.4109 24.2166 13.3503 24.3258 13.2421C24.4351 13.1339 24.4972 12.987 24.4987 12.8332V6.99989C24.4987 6.88707 24.4659 6.77667 24.4045 6.68207C24.343 6.58746 24.2554 6.5127 24.1523 6.46685L13.6523 1.8002C13.5777 1.7671 13.497 1.75 13.4154 1.75C13.3337 1.75 13.253 1.7671 13.1784 1.8002L2.67837 6.46685C2.57528 6.5127 2.4877 6.58746 2.42623 6.68207C2.36477 6.77667 2.33204 6.88707 2.33203 6.99989V19.8332C2.33205 19.946 2.36477 20.0564 2.42624 20.151C2.48771 20.2456 2.57529 20.3203 2.67837 20.3661L13.1784 25.0328C13.257 25.0678 13.3424 25.085 13.4284 25.0831C13.5145 25.0812 13.599 25.0603 13.676 25.0218L14.2594 24.7302C14.3283 24.6962 14.3899 24.6489 14.4405 24.591C14.4911 24.5331 14.5298 24.4658 14.5543 24.3929C14.5789 24.3201 14.5887 24.2431 14.5834 24.1664C14.578 24.0897 14.5576 24.0148 14.5232 23.946C14.4888 23.8772 14.4412 23.8159 14.383 23.7656C14.3248 23.7153 14.2573 23.677 14.1843 23.6529C14.1113 23.6288 14.0342 23.6194 13.9576 23.6252C13.8809 23.6309 13.8061 23.6518 13.7375 23.6866L13.7378 23.6864ZM13.4151 11.0282L9.28828 9.19395L18.319 5.18038C18.3294 5.17574 18.338 5.16895 18.348 5.16398L22.479 6.99989L13.4151 11.0282ZM13.4151 2.9715L16.9157 4.52725L7.92837 8.52163C7.90522 8.53288 7.88286 8.54567 7.86143 8.55991L4.3518 6.99989L13.4151 2.9715Z" fill="#4A4C56"/>
<path d="M19.8334 13.4165C18.6797 13.4165 17.5519 13.7586 16.5926 14.3996C15.6333 15.0405 14.8856 15.9516 14.4441 17.0175C14.0025 18.0834 13.887 19.2563 14.1121 20.3879C14.3372 21.5194 14.8927 22.5588 15.7085 23.3746C16.5243 24.1905 17.5637 24.746 18.6953 24.9711C19.8269 25.1962 20.9998 25.0807 22.0657 24.6392C23.1316 24.1977 24.0426 23.45 24.6836 22.4907C25.3246 21.5314 25.6667 20.4036 25.6667 19.2499C25.665 17.7033 25.0499 16.2206 23.9563 15.127C22.8627 14.0334 21.38 13.4182 19.8334 13.4165ZM19.8334 23.9165C18.9104 23.9165 18.0082 23.6428 17.2408 23.13C16.4733 22.6173 15.8752 21.8884 15.522 21.0357C15.1688 20.183 15.0764 19.2447 15.2564 18.3394C15.4365 17.4342 15.8809 16.6027 16.5336 15.95C17.1862 15.2974 18.0177 14.8529 18.923 14.6729C19.8282 14.4928 20.7665 14.5852 21.6193 14.9384C22.472 15.2916 23.2008 15.8898 23.7136 16.6572C24.2264 17.4246 24.5001 18.3269 24.5001 19.2499C24.4986 20.4871 24.0065 21.6732 23.1317 22.5481C22.2568 23.423 21.0706 23.9151 19.8334 23.9165Z" fill="#4A4C56"/>
<path d="M21.7537 17.6707L19.2495 20.175L18.2036 19.1291C18.1497 19.0739 18.0853 19.0299 18.0143 18.9998C17.9433 18.9696 17.8669 18.9539 17.7898 18.9534C17.7126 18.953 17.6361 18.9679 17.5648 18.9972C17.4934 19.0265 17.4285 19.0697 17.374 19.1243C17.3194 19.1788 17.2762 19.2437 17.2469 19.3151C17.2176 19.3864 17.2027 19.4629 17.2031 19.5401C17.2036 19.6173 17.2193 19.6936 17.2495 19.7646C17.2796 19.8356 17.3236 19.9 17.3787 19.9539L18.8371 21.4123C18.8913 21.4664 18.9555 21.5094 19.0263 21.5387C19.0971 21.568 19.1729 21.5831 19.2495 21.5831C19.3261 21.5831 19.402 21.568 19.4727 21.5387C19.5435 21.5094 19.6078 21.4664 19.662 21.4123L22.5786 18.4956C22.6859 18.3858 22.7456 18.2381 22.7447 18.0846C22.7438 17.931 22.6824 17.784 22.5739 17.6755C22.4653 17.5669 22.3183 17.5055 22.1648 17.5046C22.0113 17.5038 21.8636 17.5634 21.7537 17.6708V17.6707Z" fill="#4A4C56"/>
</svg>
